<svg width="72" height="42" viewBox="0 0 72 42" fill="none" xmlns="http://www.w3.org/2000/svg">
<g clip-path="url(#clip0_30_316)">
<rect x="1.5" y="1.5" width="69" height="37" fill="#F9FDFB" stroke="#030B07" stroke-width="3"/>
<rect x="67" y="1" width="1" height="35" fill="#030B07"/>
<rect x="4" y="1" width="1" height="35" fill="#030B07"/>
<rect x="5" y="36" width="0.999997" height="62" transform="rotate(-90 5 36)" fill="#030B07"/>
<circle cx="36.5" cy="37.5" r="4" fill="#F9FDFB" stroke="#030B07"/>
<rect x="5" y="2" width="62" height="2" fill="#F9FDFB"/>
<rect x="36" y="1" width="1" height="32" fill="#030B07"/>
<path d="M5.44 34V33.244L8.752 32.704V6.496L5.44 5.992V5.2H16.024V5.992L12.712 6.496V19.456L24.412 7.504L20.488 5.992V5.2H28.804V5.992L25.852 7.504L17.68 15.712L29.2 32.704L31.648 33.244V34H21.028V33.244L24.304 32.74L14.872 18.52L12.712 20.716V32.704L16.024 33.244V34H5.44ZM61.5474 34.36C60.2034 34.36 59.1954 34.036 58.5234 33.388C57.8514 32.74 57.3954 31.636 57.1554 30.076L56.4714 25.252C56.2314 23.62 55.6674 22.348 54.7794 21.436C53.9154 20.5 52.5594 20.032 50.7114 20.032H47.9034V32.704L51.2154 33.244V34H40.6314V33.244L43.9434 32.704V6.496L40.6314 5.992V5.2H50.7114C54.6234 5.2 57.4554 5.812 59.2074 7.036C60.9594 8.26 61.8354 10.12 61.8354 12.616C61.8354 16.744 59.3394 19.132 54.3474 19.78V19.996C56.1954 20.26 57.6714 20.92 58.7754 21.976C59.9034 23.032 60.6114 24.436 60.8994 26.188L61.3674 29.284C61.5594 30.628 61.7754 31.54 62.0154 32.02C62.2794 32.5 62.6754 32.74 63.2034 32.74C63.5634 32.74 63.9474 32.632 64.3554 32.416C64.7634 32.176 65.1474 31.876 65.5074 31.516L66.1194 32.164C65.4234 32.956 64.7034 33.52 63.9594 33.856C63.2154 34.192 62.4114 34.36 61.5474 34.36ZM51.9354 19.168C53.6874 19.168 55.0434 18.64 56.0034 17.584C56.9874 16.504 57.4794 14.92 57.4794 12.832V12.076C57.4794 8.092 55.2234 6.1 50.7114 6.1H47.9034V19.168H51.9354Z" fill="#030B07"/>
</g>
<defs>
<clipPath id="clip0_30_316">
<rect width="72" height="42" fill="white"/>
</clipPath>
</defs>
</svg>
